<?xml version="1.0" encoding="UTF-8"?>
<!DOCTYPE svg PUBLIC "-//W3C//DTD SVG 1.1//EN" "http://www.w3.org/Graphics/SVG/1.1/DTD/svg11.dtd">
<svg xmlns="http://www.w3.org/2000/svg" version="1.1" width="500px" height="500px" style="shape-rendering:geometricPrecision; text-rendering:geometricPrecision; image-rendering:optimizeQuality; fill-rule:evenodd; clip-rule:evenodd" xmlns:xlink="http://www.w3.org/1999/xlink">
<g><path style="opacity:1" fill="#f4f4ee" d="M -0.5,-0.5 C 166.167,-0.5 332.833,-0.5 499.5,-0.5C 499.5,166.167 499.5,332.833 499.5,499.5C 332.833,499.5 166.167,499.5 -0.5,499.5C -0.5,332.833 -0.5,166.167 -0.5,-0.5 Z"/></g>
<g><path style="opacity:1" fill="#e8e3dd" d="M 196.5,221.5 C 203.333,220.67 206,223.67 204.5,230.5C 208.385,231.671 212.219,231.337 216,229.5C 221.14,230.228 224.807,232.895 227,237.5C 227.667,244.833 227.667,252.167 227,259.5C 224,262.167 221,262.167 218,259.5C 217.667,252.833 217.333,246.167 217,239.5C 215.333,238.167 213.667,238.167 212,239.5C 211.993,246.309 211.16,252.976 209.5,259.5C 207.293,261.029 204.793,261.695 202,261.5C 199.329,261.726 196.996,261.059 195,259.5C 194.333,247.5 194.333,235.5 195,223.5C 195.717,222.956 196.217,222.289 196.5,221.5 Z"/></g>
<g><path style="opacity:1" fill="#e9e5df" d="M 226.5,221.5 C 229.365,221.055 231.865,221.722 234,223.5C 236.275,230.326 238.942,236.993 242,243.5C 245.202,237.089 247.869,230.422 250,223.5C 251.085,222.707 252.252,222.04 253.5,221.5C 256.442,222.819 259.442,223.985 262.5,225C 264.121,227.166 264.955,229.666 265,232.5C 268.098,230.953 271.431,230.286 275,230.5C 277.889,230.547 280.722,230.88 283.5,231.5C 284.99,223.83 288.823,222.164 295,226.5C 295.186,228.9 295.686,231.234 296.5,233.5C 303.314,228.242 310.148,228.242 317,233.5C 319.715,230.591 322.881,229.924 326.5,231.5C 328.432,230.634 330.432,229.967 332.5,229.5C 335.13,230.378 337.797,231.045 340.5,231.5C 339.994,227.993 340.66,224.826 342.5,222C 351.756,220.077 360.09,221.911 367.5,227.5C 367.749,226.418 367.915,225.085 368,223.5C 371.619,220.657 374.952,220.99 378,224.5C 379.608,227.772 381.608,230.772 384,233.5C 385.92,230.661 387.587,227.661 389,224.5C 392.123,220.47 394.623,220.803 396.5,225.5C 393.579,230.341 390.912,235.341 388.5,240.5C 391.228,246.288 394.228,251.955 397.5,257.5C 395.675,261.543 392.675,262.543 388.5,260.5C 386.136,257.301 383.97,253.968 382,250.5C 379.584,253.663 377.418,256.996 375.5,260.5C 371.041,261.877 369.207,260.211 370,255.5C 372.75,251.668 375.25,247.668 377.5,243.5C 375.533,239.703 373.366,236.036 371,232.5C 374.877,251.09 367.377,261.09 348.5,262.5C 344.183,261.868 339.85,261.368 335.5,261C 334.874,260.25 334.374,259.416 334,258.5C 333.5,251.842 333.334,245.175 333.5,238.5C 331.278,238.178 329.444,238.845 328,240.5C 327.667,246.167 327.333,251.833 327,257.5C 324.046,262.452 320.546,262.785 316.5,258.5C 309.705,263.397 303.038,263.397 296.5,258.5C 292.901,261.992 289.068,262.325 285,259.5C 284.25,260.126 283.416,260.626 282.5,261C 274.628,261.116 266.794,261.283 259,261.5C 257.564,261.441 256.231,261.108 255,260.5C 254.968,252.335 254.302,244.335 253,236.5C 249.889,243.722 247.056,251.056 244.5,258.5C 240.811,261.536 237.978,260.87 236,256.5C 232.333,247.167 228.667,237.833 225,228.5C 224.167,225.829 224.667,223.496 226.5,221.5 Z"/></g>
<g><path style="opacity:1" fill="#c6302c" d="M 201.5,256.5 C 200.167,257.833 198.833,257.833 197.5,256.5C 198.167,245.992 198.833,235.326 199.5,224.5C 200.167,235.326 200.833,245.992 201.5,256.5 Z"/></g>
<g><path style="opacity:1" fill="#c8423b" d="M 227.5,223.5 C 228.833,223.5 230.167,223.5 231.5,223.5C 234.364,233.754 238.03,243.754 242.5,253.5C 242,254.5 241.5,255.5 241,256.5C 236.014,245.711 231.514,234.711 227.5,223.5 Z"/></g>
<g><path style="opacity:1" fill="#c6312d" d="M 347.5,256.5 C 349.5,256.5 351.5,256.5 353.5,256.5C 353.5,256.833 353.5,257.167 353.5,257.5C 349.958,257.813 346.625,257.479 343.5,256.5C 344.167,245.992 344.833,235.326 345.5,224.5C 346.167,235.326 346.833,245.992 347.5,256.5 Z"/></g>
<g><path style="opacity:1" fill="#d26a64" d="M 252.5,223.5 C 254.646,223.696 254.812,224.696 253,226.5C 252.517,225.552 252.351,224.552 252.5,223.5 Z"/></g>
<g><path style="opacity:1" fill="#c73b36" d="M 257.5,226.5 C 260.166,226.066 261.333,227.066 261,229.5C 257.403,231.066 256.237,230.066 257.5,226.5 Z"/></g>
<g><path style="opacity:1" fill="#c73b36" d="M 288.5,226.5 C 291.166,226.066 292.333,227.066 292,229.5C 288.403,231.066 287.237,230.066 288.5,226.5 Z"/></g>
<g><path style="opacity:1" fill="#edebe6" d="M 354.5,225.5 C 362.269,227.337 365.936,232.337 365.5,240.5C 365.644,249.014 361.644,254.347 353.5,256.5C 351.5,256.5 349.5,256.5 347.5,256.5C 347.5,246.167 347.5,235.833 347.5,225.5C 349.833,225.5 352.167,225.5 354.5,225.5 Z"/></g>
<g><path style="opacity:1" fill="#cf8883" d="M 355.5,224.5 C 354.833,224.5 354.5,224.833 354.5,225.5C 352.167,225.5 349.833,225.5 347.5,225.5C 347.5,235.833 347.5,246.167 347.5,256.5C 346.833,245.992 346.167,235.326 345.5,224.5C 344.833,235.326 344.167,245.992 343.5,256.5C 343.5,245.5 343.5,234.5 343.5,223.5C 347.702,223.183 351.702,223.517 355.5,224.5 Z"/></g>
<g><path style="opacity:1" fill="#c94740" d="M 354.5,225.5 C 354.5,224.833 354.833,224.5 355.5,224.5C 363.917,226.135 368.25,231.302 368.5,240C 368.28,250.047 363.28,255.88 353.5,257.5C 353.5,257.167 353.5,256.833 353.5,256.5C 361.644,254.347 365.644,249.014 365.5,240.5C 365.936,232.337 362.269,227.337 354.5,225.5 Z"/></g>
<g><path style="opacity:1" fill="#c73e37" d="M 258.5,232.5 C 260.177,240.349 261.177,248.515 261.5,257C 260.207,257.49 258.873,257.657 257.5,257.5C 257.198,249.082 257.531,240.748 258.5,232.5 Z"/></g>
<g><path style="opacity:1" fill="#c73e37" d="M 289.5,232.5 C 291.177,240.349 292.177,248.515 292.5,257C 291.207,257.49 289.873,257.657 288.5,257.5C 288.198,249.082 288.531,240.748 289.5,232.5 Z"/></g>
<g><path style="opacity:1" fill="#c6322e" d="M 323.5,232.5 C 323.5,240.167 323.5,247.833 323.5,255.5C 322.998,257.085 321.998,257.585 320.5,257C 321.833,249.333 321.833,241.667 320.5,234C 321.527,233.487 322.527,232.987 323.5,232.5 Z"/></g>
<g><path style="opacity:1" fill="#c73833" d="M 212.5,233.5 C 216.311,231.882 219.811,232.549 223,235.5C 223.185,242.747 223.685,249.913 224.5,257C 223.167,257.667 221.833,257.667 220.5,257C 221.147,253.751 221.481,250.418 221.5,247C 221.593,243.05 221.093,239.216 220,235.5C 217.772,233.887 215.272,233.22 212.5,233.5 Z"/></g>
<g><path style="opacity:1" fill="#c94840" d="M 269.5,232.5 C 274.206,232.085 278.706,232.752 283,234.5C 283.667,235.5 283.667,236.5 283,237.5C 279.604,233.797 275.437,232.631 270.5,234C 267.068,236.367 266.735,239.034 269.5,242C 274.977,243.155 280.144,244.988 285,247.5C 285.718,254.945 282.218,258.279 274.5,257.5C 270.58,257.886 267.08,256.886 264,254.5C 263.437,253.275 263.77,252.275 265,251.5C 269.526,256.816 274.859,257.816 281,254.5C 283.145,252.105 282.978,249.938 280.5,248C 276.877,246.844 273.211,245.844 269.5,245C 262.899,240.838 262.899,236.671 269.5,232.5 Z"/></g>
<g><path style="opacity:1" fill="#c8413b" d="M 302.5,232.5 C 314.964,232.457 319.797,238.457 317,250.5C 313.23,257.414 307.73,259.247 300.5,256C 291.987,247.286 292.654,239.452 302.5,232.5 Z"/></g>
<g><path style="opacity:1" fill="#c63833" d="M 329.5,233.5 C 329.5,233.167 329.5,232.833 329.5,232.5C 333.803,231.796 337.303,233.13 340,236.5C 340.5,243.492 340.666,250.492 340.5,257.5C 339.5,257.5 338.5,257.5 337.5,257.5C 337.666,250.492 337.5,243.492 337,236.5C 335.152,233.959 332.652,232.959 329.5,233.5 Z"/></g>
<g><path style="opacity:1" fill="#c63935" d="M 205.5,232.5 C 206.824,236.107 207.491,240.107 207.5,244.5C 207.333,248.5 207.167,252.5 207,256.5C 206.586,256.957 206.086,257.291 205.5,257.5C 204.199,249.108 204.199,240.775 205.5,232.5 Z"/></g>
<g><path style="opacity:1" fill="#c8413a" d="M 370.5,224.5 C 371.708,223.218 373.042,223.218 374.5,224.5C 380.79,235.584 387.457,246.418 394.5,257C 393.056,257.781 391.723,257.614 390.5,256.5C 384.309,245.433 377.642,234.766 370.5,224.5 Z"/></g>
<g><path style="opacity:1" fill="#c73733" d="M 130.5,204.5 C 132.856,207.715 134.356,211.381 135,215.5C 136.247,222.779 136.747,230.112 136.5,237.5C 148.165,236.61 159.498,238.11 170.5,242C 174.398,244.889 173.732,246.889 168.5,248C 158.048,250.97 147.382,252.137 136.5,251.5C 137.031,261.383 135.864,271.05 133,280.5C 132.303,282.584 131.136,284.251 129.5,285.5C 125.786,274.505 124.12,263.172 124.5,251.5C 114.026,252.096 103.692,251.263 93.5,249C 86.267,246.638 85.9337,243.971 92.5,241C 102.934,237.91 113.601,236.744 124.5,237.5C 124.277,229.453 124.777,221.453 126,213.5C 126.663,209.965 128.163,206.965 130.5,204.5 Z"/></g>
<g><path style="opacity:1" fill="#eeece6" d="M 303.5,233.5 C 309.031,233.177 312.864,235.51 315,240.5C 316.956,248.51 314.123,253.843 306.5,256.5C 298.887,253.888 296.053,248.555 298,240.5C 298.967,237.379 300.8,235.046 303.5,233.5 Z"/></g>
<g><path style="opacity:1" fill="#cd8782" d="M 201.5,256.5 C 200.833,245.992 200.167,235.326 199.5,224.5C 198.833,235.326 198.167,245.992 197.5,256.5C 197.5,245.5 197.5,234.5 197.5,223.5C 198.833,223.5 200.167,223.5 201.5,223.5C 201.5,234.5 201.5,245.5 201.5,256.5 Z"/></g>
<g><path style="opacity:1" fill="#ce8b86" d="M 323.5,232.5 C 324.268,233.263 324.768,234.263 325,235.5C 326.271,234.117 327.771,233.117 329.5,232.5C 329.5,232.833 329.5,233.167 329.5,233.5C 327.525,234.646 326.025,236.313 325,238.5C 324.827,244.348 324.327,250.015 323.5,255.5C 323.5,247.833 323.5,240.167 323.5,232.5 Z"/></g>
<g><path style="opacity:1" fill="#ce514c" d="M 130.5,203.5 C 130.5,203.833 130.5,204.167 130.5,204.5C 128.163,206.965 126.663,209.965 126,213.5C 124.777,221.453 124.277,229.453 124.5,237.5C 113.601,236.744 102.934,237.91 92.5,241C 85.9337,243.971 86.267,246.638 93.5,249C 103.692,251.263 114.026,252.096 124.5,251.5C 124.12,263.172 125.786,274.505 129.5,285.5C 129.5,285.833 129.5,286.167 129.5,286.5C 121.744,294.471 113.91,294.471 106,286.5C 105.333,285.167 104.667,283.833 104,282.5C 103.66,277.996 103.493,273.663 103.5,269.5C 91.2046,272.86 83.8713,268.36 81.5,256C 82.2041,251.757 83.8708,247.924 86.5,244.5C 79.5814,236.294 79.9147,228.461 87.5,221C 92.923,217.878 98.423,217.711 104,220.5C 103.508,215.551 103.508,210.551 104,205.5C 108.255,198.46 114.422,195.96 122.5,198C 125.576,199.243 128.243,201.077 130.5,203.5 Z"/></g>
<g><path style="opacity:1" fill="#cf5853" d="M 129.5,286.5 C 129.5,286.167 129.5,285.833 129.5,285.5C 131.136,284.251 132.303,282.584 133,280.5C 135.864,271.05 137.031,261.383 136.5,251.5C 147.382,252.137 158.048,250.97 168.5,248C 173.732,246.889 174.398,244.889 170.5,242C 159.498,238.11 148.165,236.61 136.5,237.5C 136.747,230.112 136.247,222.779 135,215.5C 134.356,211.381 132.856,207.715 130.5,204.5C 130.5,204.167 130.5,203.833 130.5,203.5C 135.951,197.371 142.618,195.871 150.5,199C 153.04,201.205 155.207,203.705 157,206.5C 157.271,210.954 157.437,215.287 157.5,219.5C 165.445,216.811 171.945,218.811 177,225.5C 179.456,232.272 178.623,238.606 174.5,244.5C 180.658,253.614 179.658,261.781 171.5,269C 166.448,270.468 161.448,270.968 156.5,270.5C 159.783,280.767 156.449,287.934 146.5,292C 144.167,292.667 141.833,292.667 139.5,292C 135.952,290.396 132.618,288.563 129.5,286.5 Z"/></g>
</svg>
